%TF.GenerationSoftware,KiCad,Pcbnew,(5.1.8)-1*%
%TF.CreationDate,2020-12-08T09:30:58-08:00*%
%TF.ProjectId,UP-SPI-Adapter,55502d53-5049-42d4-9164-61707465722e,rev?*%
%TF.SameCoordinates,Original*%
%TF.FileFunction,Copper,L1,Top*%
%TF.FilePolarity,Positive*%
%FSLAX46Y46*%
G04 Gerber Fmt 4.6, Leading zero omitted, Abs format (unit mm)*
G04 Created by KiCad (PCBNEW (5.1.8)-1) date 2020-12-08 09:30:58*
%MOMM*%
%LPD*%
G01*
G04 APERTURE LIST*
%TA.AperFunction,SMDPad,CuDef*%
%ADD10R,3.150000X1.000000*%
%TD*%
%TA.AperFunction,ViaPad*%
%ADD11C,0.800000*%
%TD*%
%TA.AperFunction,Conductor*%
%ADD12C,0.500000*%
%TD*%
G04 APERTURE END LIST*
D10*
%TO.P,J1,1*%
%TO.N,/VCC*%
X196200000Y-128905000D03*
%TO.P,J1,2*%
%TO.N,/GND*%
X191150000Y-128905000D03*
%TO.P,J1,3*%
%TO.N,/CS*%
X196200000Y-126365000D03*
%TO.P,J1,4*%
%TO.N,/CLK*%
X191150000Y-126365000D03*
%TO.P,J1,5*%
%TO.N,/MISO*%
X196200000Y-123825000D03*
%TO.P,J1,6*%
%TO.N,/MOSI*%
X191150000Y-123825000D03*
%TO.P,J1,7*%
%TO.N,Net-(J1-Pad7)*%
X196200000Y-121285000D03*
%TO.P,J1,8*%
%TO.N,/~HOLD*%
X191150000Y-121285000D03*
%TD*%
D11*
%TO.N,/VCC*%
X198437500Y-127952500D03*
%TO.N,/GND*%
X193675000Y-128905000D03*
%TO.N,/CS*%
X198437500Y-126365000D03*
%TO.N,/CLK*%
X201930000Y-125095000D03*
X201930000Y-125095000D03*
%TO.N,/MISO*%
X198437500Y-124460000D03*
%TO.N,/MOSI*%
X201930000Y-122555000D03*
%TO.N,/~HOLD*%
X193675000Y-121920000D03*
%TD*%
D12*
%TO.N,/VCC*%
X196200000Y-128905000D02*
X197485000Y-128905000D01*
X197485000Y-128905000D02*
X198437500Y-127952500D01*
%TO.N,/GND*%
X193675000Y-128905000D02*
X191150000Y-128905000D01*
%TO.N,/CS*%
X198437500Y-126365000D02*
X196200000Y-126365000D01*
%TO.N,/CLK*%
X191150000Y-126365000D02*
X193040000Y-126365000D01*
X193040000Y-126365000D02*
X193992500Y-125412500D01*
X201612500Y-125412500D02*
X201930000Y-125095000D01*
X193992500Y-125412500D02*
X201612500Y-125412500D01*
%TO.N,/MISO*%
X197802500Y-123825000D02*
X196200000Y-123825000D01*
X198437500Y-124460000D02*
X197802500Y-123825000D01*
%TO.N,/MOSI*%
X193040000Y-123825000D02*
X191150000Y-123825000D01*
X194310000Y-122555000D02*
X193040000Y-123825000D01*
X201930000Y-122555000D02*
X194310000Y-122555000D01*
%TO.N,/~HOLD*%
X193675000Y-121920000D02*
X193040000Y-121285000D01*
X193040000Y-121285000D02*
X191150000Y-121285000D01*
%TD*%
M02*
